HIERARCHY
ROOT Hips
{
	OFFSET 0.000000 99.672066 0.247052
	CHANNELS 6 Xposition Yposition Zposition Xrotation Yrotation Zrotation
	JOINT Spine
	{
		OFFSET 0.000001 9.923462 -1.227335
		CHANNELS 3 Xrotation Yrotation Zrotation
		JOINT Spine1
		{
			OFFSET -0.000139 11.645439 -1.422341
			CHANNELS 3 Xrotation Yrotation Zrotation
			JOINT Spine2
			{
				OFFSET 0.000091 13.360199 -1.626460
				CHANNELS 3 Xrotation Yrotation Zrotation
				JOINT Neck
				{
					OFFSET 0.000025 15.032501 0.792905
					CHANNELS 3 Xrotation Yrotation Zrotation
					JOINT Head
					{
						OFFSET 0.000002 10.321823 3.142429
						CHANNELS 3 Xrotation Yrotation Zrotation
						JOINT HeadTop_End
						{
							OFFSET 0.000154 18.474670 6.636399
							CHANNELS 3 Xrotation Yrotation Zrotation
							End Site
							{
								OFFSET 0.000000 14.732239 0.000000
							}
						}
						JOINT LeftEye
						{
							OFFSET 2.947915 7.681747 9.120731
							CHANNELS 3 Xrotation Yrotation Zrotation
							End Site
							{
								OFFSET 0.000000 14.732239 0.000000
							}
						}
						JOINT RightEye
						{
							OFFSET -2.944481 7.681747 9.120496
							CHANNELS 3 Xrotation Yrotation Zrotation
							End Site
							{
								OFFSET 0.000000 14.732239 0.000000
							}
						}
					}
				}
				JOINT LeftShoulder
				{
					OFFSET 6.105824 9.110428 0.705551
					CHANNELS 3 Xrotation Yrotation Zrotation
					JOINT LeftArm
					{
						OFFSET 12.655037 -0.265930 -2.600922
						CHANNELS 3 Xrotation Yrotation Zrotation
						JOINT LeftForeArm
						{
							OFFSET 27.404682 0.000031 0.000007
							CHANNELS 3 Xrotation Yrotation Zrotation
							JOINT LeftHand
							{
								OFFSET 27.614464 0.000031 0.000020
								CHANNELS 3 Xrotation Yrotation Zrotation
								JOINT LeftHandMiddle1
								{
									OFFSET 12.775528 0.000015 0.000021
									CHANNELS 3 Xrotation Yrotation Zrotation
									JOINT LeftHandMiddle2
									{
										OFFSET 3.613968 0.000000 0.000002
										CHANNELS 3 Xrotation Yrotation Zrotation
										JOINT LeftHandMiddle3
										{
											OFFSET 3.459763 0.000000 -0.000027
											CHANNELS 3 Xrotation Yrotation Zrotation
											JOINT LeftHandMiddle4
											{
												OFFSET 3.680191 0.000000 0.000033
												CHANNELS 3 Xrotation Yrotation Zrotation
												End Site
												{
													OFFSET 0.000000 3.680191 0.000000
												}
											}
										}
									}
								}
								JOINT LeftHandThumb1
								{
									OFFSET 3.788811 -2.166992 3.003088
									CHANNELS 3 Xrotation Yrotation Zrotation
									JOINT LeftHandThumb2
									{
										OFFSET 3.675446 -2.122009 2.122012
										CHANNELS 3 Xrotation Yrotation Zrotation
										JOINT LeftHandThumb3
										{
											OFFSET 3.394356 -1.959747 1.959793
											CHANNELS 3 Xrotation Yrotation Zrotation
											JOINT LeftHandThumb4
											{
												OFFSET 2.679405 -1.546951 1.546920
												CHANNELS 3 Xrotation Yrotation Zrotation
												End Site
												{
													OFFSET 0.000000 3.459076 0.000000
												}
											}
										}
									}
								}
								JOINT LeftHandIndex1
								{
									OFFSET 12.266617 -0.231659 2.822058
									CHANNELS 3 Xrotation Yrotation Zrotation
									JOINT LeftHandIndex2
									{
										OFFSET 3.891968 0.000000 0.000039
										CHANNELS 3 Xrotation Yrotation Zrotation
										JOINT LeftHandIndex3
										{
											OFFSET 3.415161 0.000000 -0.000009
											CHANNELS 3 Xrotation Yrotation Zrotation
											JOINT LeftHandIndex4
											{
												OFFSET 3.077988 0.000000 -0.000009
												CHANNELS 3 Xrotation Yrotation Zrotation
												End Site
												{
													OFFSET 0.000000 3.077988 0.000000
												}
											}
										}
									}
								}
								JOINT LeftHandRing1
								{
									OFFSET 12.147011 0.009903 -2.216630
									CHANNELS 3 Xrotation Yrotation Zrotation
									JOINT LeftHandRing2
									{
										OFFSET 3.601189 0.000000 0.000035
										CHANNELS 3 Xrotation Yrotation Zrotation
										JOINT LeftHandRing3
										{
											OFFSET 3.307312 0.000000 -0.000021
											CHANNELS 3 Xrotation Yrotation Zrotation
											JOINT LeftHandRing4
											{
												OFFSET 3.660118 0.000000 0.000000
												CHANNELS 3 Xrotation Yrotation Zrotation
												End Site
												{
													OFFSET 0.000000 3.660110 0.000000
												}
											}
										}
									}
								}
								JOINT LeftHandPinky1
								{
									OFFSET 10.908195 -0.226364 -4.725818
									CHANNELS 3 Xrotation Yrotation Zrotation
									JOINT LeftHandPinky2
									{
										OFFSET 4.136658 0.000000 0.000027
										CHANNELS 3 Xrotation Yrotation Zrotation
										JOINT LeftHandPinky3
										{
											OFFSET 2.594833 0.000000 -0.000035
											CHANNELS 3 Xrotation Yrotation Zrotation
											JOINT LeftHandPinky4
											{
												OFFSET 2.923866 0.000000 0.000019
												CHANNELS 3 Xrotation Yrotation Zrotation
												End Site
												{
													OFFSET 0.000000 2.923874 0.000000
												}
											}
										}
									}
								}
							}
						}
					}
				}
				JOINT RightShoulder
				{
					OFFSET -6.105696 9.110519 0.705564
					CHANNELS 3 Xrotation Yrotation Zrotation
					JOINT RightArm
					{
						OFFSET -12.655039 -0.266022 -2.600896
						CHANNELS 3 Xrotation Yrotation Zrotation
						JOINT RightForeArm
						{
							OFFSET -27.404684 0.000031 0.000005
							CHANNELS 3 Xrotation Yrotation Zrotation
							JOINT RightHand
							{
								OFFSET -27.614464 0.000015 0.000018
								CHANNELS 3 Xrotation Yrotation Zrotation
								JOINT RightHandMiddle1
								{
									OFFSET -12.775528 0.000015 0.000018
									CHANNELS 3 Xrotation Yrotation Zrotation
									JOINT RightHandMiddle2
									{
										OFFSET -3.613968 0.000000 0.000003
										CHANNELS 3 Xrotation Yrotation Zrotation
										JOINT RightHandMiddle3
										{
											OFFSET -3.459763 0.000000 -0.000026
											CHANNELS 3 Xrotation Yrotation Zrotation
											JOINT RightHandMiddle4
											{
												OFFSET -3.680191 0.000000 0.000032
												CHANNELS 3 Xrotation Yrotation Zrotation
												End Site
												{
													OFFSET 0.000000 3.680191 0.000000
												}
											}
										}
									}
								}
								JOINT RightHandThumb1
								{
									OFFSET -3.788811 -2.166992 3.003087
									CHANNELS 3 Xrotation Yrotation Zrotation
									JOINT RightHandThumb2
									{
										OFFSET -3.675446 -2.122009 2.122012
										CHANNELS 3 Xrotation Yrotation Zrotation
										JOINT RightHandThumb3
										{
											OFFSET -3.394356 -1.959747 1.959793
											CHANNELS 3 Xrotation Yrotation Zrotation
											JOINT RightHandThumb4
											{
												OFFSET -2.679405 -1.546951 1.546920
												CHANNELS 3 Xrotation Yrotation Zrotation
												End Site
												{
													OFFSET 0.000000 3.459076 0.000000
												}
											}
										}
									}
								}
								JOINT RightHandIndex1
								{
									OFFSET -12.266617 -0.231674 2.822056
									CHANNELS 3 Xrotation Yrotation Zrotation
									JOINT RightHandIndex2
									{
										OFFSET -3.891968 0.000000 0.000037
										CHANNELS 3 Xrotation Yrotation Zrotation
										JOINT RightHandIndex3
										{
											OFFSET -3.415161 0.000000 -0.000009
											CHANNELS 3 Xrotation Yrotation Zrotation
											JOINT RightHandIndex4
											{
												OFFSET -3.077988 0.000000 -0.000009
												CHANNELS 3 Xrotation Yrotation Zrotation
												End Site
												{
													OFFSET 0.000000 3.077988 0.000000
												}
											}
										}
									}
								}
								JOINT RightHandRing1
								{
									OFFSET -12.147003 0.009903 -2.216631
									CHANNELS 3 Xrotation Yrotation Zrotation
									JOINT RightHandRing2
									{
										OFFSET -3.601196 0.000000 0.000034
										CHANNELS 3 Xrotation Yrotation Zrotation
										JOINT RightHandRing3
										{
											OFFSET -3.307312 0.000000 -0.000021
											CHANNELS 3 Xrotation Yrotation Zrotation
											JOINT RightHandRing4
											{
												OFFSET -3.660118 0.000000 0.000001
												CHANNELS 3 Xrotation Yrotation Zrotation
												End Site
												{
													OFFSET 0.000000 3.660110 0.000000
												}
											}
										}
									}
								}
								JOINT RightHandPinky1
								{
									OFFSET -10.908195 -0.226364 -4.725820
									CHANNELS 3 Xrotation Yrotation Zrotation
									JOINT RightHandPinky2
									{
										OFFSET -4.136650 0.000000 0.000026
										CHANNELS 3 Xrotation Yrotation Zrotation
										JOINT RightHandPinky3
										{
											OFFSET -2.594841 0.000000 -0.000037
											CHANNELS 3 Xrotation Yrotation Zrotation
											JOINT RightHandPinky4
											{
												OFFSET -2.923866 0.000000 0.000019
												CHANNELS 3 Xrotation Yrotation Zrotation
												End Site
												{
													OFFSET 0.000000 2.923874 0.000000
												}
											}
										}
									}
								}
							}
						}
					}
				}
			}
		}
	}
	JOINT RightUpLeg
	{
		OFFSET -9.124454 -6.656395 -0.055378
		CHANNELS 3 Xrotation Yrotation Zrotation
		JOINT RightLeg
		{
			OFFSET -0.244680 -40.595436 -0.514528
			CHANNELS 3 Xrotation Yrotation Zrotation
			JOINT RightFoot
			{
				OFFSET 0.244669 -42.047871 -2.060231
				CHANNELS 3 Xrotation Yrotation Zrotation
				JOINT RightToeBase
				{
					OFFSET -0.373360 -10.492195 12.640663
					CHANNELS 3 Xrotation Yrotation Zrotation
					JOINT RightToe_End
					{
						OFFSET 0.000000 0.000000 9.992521
						CHANNELS 3 Xrotation Yrotation Zrotation
						End Site
						{
							OFFSET 0.000000 9.992521 0.000000
						}
					}
				}
			}
		}
	}
	JOINT LeftUpLeg
	{
		OFFSET 9.124453 -6.656395 -0.055378
		CHANNELS 3 Xrotation Yrotation Zrotation
		JOINT LeftLeg
		{
			OFFSET 0.244680 -40.595406 -0.517041
			CHANNELS 3 Xrotation Yrotation Zrotation
			JOINT LeftFoot
			{
				OFFSET -0.244669 -42.047997 -2.057641
				CHANNELS 3 Xrotation Yrotation Zrotation
				JOINT LeftToeBase
				{
					OFFSET 0.373360 -10.492195 12.640664
					CHANNELS 3 Xrotation Yrotation Zrotation
					JOINT LeftToe_End
					{
						OFFSET 0.000000 0.000001 9.992521
						CHANNELS 3 Xrotation Yrotation Zrotation
						End Site
						{
							OFFSET 0.000000 9.992521 0.000000
						}
					}
				}
			}
		}
	}
}
MOTION
Frames: 4
Frame Time: 0.033333
-0.175511 95.576927 0.164375 -4.861989 34.613585 1.564708 8.364808 12.657129 4.019254 1.053961 1.802955 -8.042237 1.261061 1.682013 -8.040564 -6.195695 -6.117713 -7.546450 -1.195500 -42.510466 19.791776 -0.000000 -0.000000 -0.000000 -0.000000 -0.000000 -0.000000 -0.000000 -0.000000 -0.000000 -0.053782 2.666468 2.766114 50.664134 -34.649181 -20.584824 0.000085 -80.175335 0.000110 17.924211 -7.967510 27.573959 0.065026 -0.945833 7.866345 0.004503 0.249356 -2.067600 0.029182 0.634267 -5.265725 0.000000 0.000001 -0.000000 -4.236975 8.029587 22.834950 4.286157 12.077065 1.062957 -0.331138 4.232603 2.803573 0.000001 -0.000002 -0.000001 0.133386 -1.351169 11.275969 0.000004 0.000001 -0.000064 0.001926 0.162942 -1.350977 0.000001 -0.000001 -0.000002 0.014099 -0.441470 3.662334 0.032014 0.664440 -5.516826 0.095213 1.143165 -9.521842 0.000001 -0.000003 -0.000000 -0.040276 4.016191 0.826043 0.064228 -3.051450 -8.854606 0.173741 1.539709 -12.875286 0.000001 0.000002 -0.000001 1.921582 7.577983 -18.005760 5.954971 17.681857 15.217120 -0.000006 15.604810 -0.000000 48.163506 -3.628275 33.743863 0.765480 -3.175888 27.096945 0.480837 -2.544591 21.396730 0.535634 -2.680237 22.600046 -0.000001 -0.000001 -0.000000 -2.466129 -0.487329 -24.603422 5.209476 -14.946566 -0.663989 -0.198104 -12.357025 -3.362995 0.000000 -0.000001 0.000000 0.654258 -2.948706 25.015035 0.485199 -2.555768 21.495413 0.439409 -2.436506 20.444807 -0.000000 -0.000001 -0.000000 0.928563 -3.475688 29.907308 0.461084 -2.493706 20.947794 0.671396 -2.985105 25.346099 0.000000 0.000001 0.000001 1.083421 -3.731513 32.370818 0.429177 -2.408772 20.201698 0.800804 -3.243831 27.727375 0.000000 0.000001 0.000003 -11.828290 -3.812287 -11.157698 31.235985 -10.050710 6.018784 -9.627410 -22.419676 8.069699 -2.467424 0.000001 -0.000002 -0.000000 -0.000001 -0.000000 -14.064567 -4.966476 8.935550 30.205245 -9.572732 1.860067 -14.751487 -10.068689 -8.699260 -0.742228 0.000002 0.000001 0.000000 -0.000000 -0.000000 
-2.117392 94.887138 0.824616 -6.459670 36.590737 2.787903 11.076378 13.415841 4.075667 1.663040 1.935078 -8.606054 1.900298 1.758583 -8.595663 -7.557934 -6.801020 -8.140933 -1.838838 -46.479813 19.581848 0.000000 0.000000 -0.000000 0.000000 0.000000 -0.000000 0.000000 0.000000 -0.000000 0.048946 2.511056 1.326918 45.041877 -31.526251 -19.267188 0.000009 -79.177827 0.000030 20.913787 -6.287616 28.022454 0.058932 -0.900601 7.487949 0.005172 0.267072 -2.214495 0.031072 0.654662 -5.435534 -0.000003 -0.000002 0.000001 -4.246835 8.061087 22.841208 4.287498 12.093617 1.064189 -0.330373 4.240864 2.804389 0.000001 -0.000002 -0.000001 0.126533 -1.316285 10.981074 -0.000000 0.000001 -0.000035 0.002442 0.183617 -1.522448 -0.000001 0.000000 -0.000000 0.010622 -0.383042 3.177168 0.035094 0.695605 -5.776548 0.099690 1.169539 -9.743637 -0.000001 0.000002 0.000001 0.000414 4.085689 0.250230 0.070731 -3.010585 -9.197193 0.180940 1.570884 -13.140755 0.000001 0.000000 -0.000000 1.725788 6.921863 -17.196796 -13.193531 9.337389 17.634319 0.000003 6.844471 0.000004 53.654811 -17.192537 31.742785 0.992297 -3.584002 30.942430 0.509494 -2.616518 22.033502 0.476969 -2.534783 21.310018 0.000003 0.000001 0.000002 -2.937631 -1.881016 -24.840368 5.274115 -15.685466 -0.711970 -0.129773 -13.257976 -3.447119 -0.000000 0.000000 -0.000002 0.831234 -3.301011 28.260709 0.449040 -2.462022 20.669102 0.425471 -2.398800 20.114262 -0.000000 0.000002 -0.000000 1.228105 -3.950006 34.530465 0.570894 -2.763246 23.341992 0.550257 -2.715009 22.910360 0.000001 -0.000003 0.000002 1.451516 -4.255681 37.652193 0.600153 -2.830025 23.941792 0.620196 -2.874718 24.344702 -0.000000 0.000003 -0.000002 -12.876962 -6.510049 -10.897055 35.557709 -10.035553 5.578755 -12.486428 -21.130143 7.344187 -1.762600 0.000004 0.000001 0.000000 -0.000000 0.000000 -14.794005 -2.781283 9.120003 31.738520 -9.264457 5.080350 -15.655635 -13.467518 -11.784657 -0.781062 -0.000014 -0.000004 -0.000000 -0.000001 0.000000 
-4.004842 93.857346 1.623491 -8.091032 38.547638 3.507833 13.323542 13.213342 3.979427 1.896879 1.938652 -8.415432 2.127079 1.729139 -8.405989 -8.266202 -7.241419 -8.319227 -4.537502 -48.822660 17.711519 0.000000 0.000001 -0.000000 0.000000 0.000001 -0.000000 0.000000 0.000001 -0.000000 0.188354 1.336499 1.114074 38.374718 -29.503047 -22.113118 0.000012 -76.860911 -0.000014 20.671002 -4.208833 27.880340 0.054921 -0.869498 7.227718 0.005799 0.282999 -2.346652 0.032856 0.673130 -5.589283 -0.000004 0.000002 0.000001 -4.280593 8.168636 22.862607 4.292133 12.150148 1.068394 -0.327815 4.269056 2.807137 -0.000001 0.000001 0.000001 0.122524 -1.295483 10.805177 0.000005 0.000005 0.000007 0.002996 0.203245 -1.685143 -0.000001 0.000001 0.000000 0.008322 -0.338837 2.810119 0.038088 0.724680 -6.018979 0.103496 1.191489 -9.928598 -0.000001 -0.000001 -0.000000 0.033184 4.140492 -0.206501 0.077107 -2.971858 -9.522262 0.186770 1.595597 -13.351420 -0.000000 -0.000001 0.000002 1.276847 5.267642 -16.348910 -24.389607 4.030282 17.292108 0.000002 2.139411 -0.000001 42.289874 -27.124901 17.788623 1.098735 -3.755508 32.605329 0.591281 -2.809971 23.761393 0.441814 -2.442823 20.500393 -0.000000 0.000001 0.000000 -2.736968 -1.290276 -24.738467 5.246758 -15.372130 -0.691707 -0.158609 -12.875911 -3.411542 -0.000000 0.000000 0.000001 0.977660 -3.559537 30.707547 0.465993 -2.506485 21.060410 0.397577 -2.321194 19.436162 0.000001 0.000000 0.000001 1.276893 -4.019831 35.232564 0.743425 -3.132429 26.695839 0.505833 -2.607503 21.953490 -0.000003 -0.000001 -0.000003 1.446465 -4.249165 37.584198 0.852570 -3.340333 28.629028 0.563410 -2.745876 23.186363 -0.000000 -0.000002 -0.000002 -13.926986 -8.759376 -9.898862 40.239277 -10.064535 5.151042 -15.599829 -20.886642 6.617207 -1.543052 -0.000003 -0.000000 0.000000 0.000000 0.000000 -16.080065 -1.873112 9.813286 34.716147 -9.214733 7.972030 -17.265345 -14.761453 -14.464403 -0.835971 -0.000004 -0.000002 -0.000000 -0.000001 -0.000000 
-5.697038 92.608459 2.532216 -10.176642 40.204068 3.806298 15.245488 11.866060 3.697413 1.785354 1.778158 -7.395830 1.971690 1.565937 -7.395354 -8.245865 -7.381310 -7.858640 -8.164050 -48.881950 15.176643 0.000000 -0.000000 -0.000000 0.000000 -0.000000 -0.000000 0.000000 -0.000000 -0.000000 0.461079 -0.844125 1.152143 31.785972 -27.751868 -28.620951 -0.000035 -75.324904 -0.000033 11.557894 -1.829768 26.928799 0.053293 -0.856639 7.120336 0.006348 0.296169 -2.455943 0.034502 0.689693 -5.727249 -0.000002 -0.000001 0.000000 -4.344537 8.372002 22.903253 4.300837 12.257000 1.076323 -0.322932 4.322370 2.812335 0.000002 0.000000 0.000000 0.122147 -1.293488 10.788403 -0.000000 0.000003 -0.000001 0.003519 0.220587 -1.828938 -0.000000 0.000003 0.000001 0.007057 -0.312232 2.589358 0.040804 0.749882 -6.229048 0.106830 1.210363 -10.087412 0.000000 -0.000002 -0.000000 0.055979 4.178086 -0.520850 0.082934 -2.937686 -9.809560 0.191679 1.616146 -13.526644 -0.000001 0.000001 0.000000 0.775176 3.294850 -15.329011 -29.387599 2.897097 16.489081 -0.000001 2.969589 0.000001 22.953305 -25.955721 -1.964263 0.913609 -3.449618 29.659871 0.692100 -3.028397 25.740922 0.447233 -2.457257 20.627079 0.000002 -0.000002 -0.000002 -2.242110 0.181625 -24.493868 5.178328 -14.592296 -0.640714 -0.231239 -11.925059 -3.322359 0.000001 -0.000002 0.000001 0.800176 -3.242666 27.716611 0.539180 -2.688669 22.675224 0.377765 -2.264293 18.940801 0.000001 -0.000001 -0.000001 1.080075 -3.726234 32.319315 0.886431 -3.401521 29.204892 0.544306 -2.700892 22.784280 0.000002 -0.000001 -0.000001 1.238238 -3.964665 34.677359 1.035608 -3.655130 31.628437 0.628640 -2.893240 24.512284 0.000001 0.000000 -0.000001 -14.076164 -9.925525 -8.117457 44.600312 -10.117730 5.549443 -18.737852 -21.584205 5.555907 -1.535217 0.000001 -0.000001 0.000000 -0.000000 -0.000000 -17.188958 -2.316827 11.537364 38.663980 -9.523271 9.792201 -19.143024 -14.165903 -16.327658 -0.950065 0.000010 0.000001 -0.000000 -0.000002 0.000000 
